<svg xmlns="http://www.w3.org/2000/svg" width="34.101" height="22.378" viewBox="0 0 34.101 22.378">
  <path id="Path_53" data-name="Path 53" d="M835.55,496.427H809.975a4.263,4.263,0,0,0-4.263,4.262v13.852a4.264,4.264,0,0,0,4.263,4.264H835.55a4.264,4.264,0,0,0,4.263-4.264V500.689a4.262,4.262,0,0,0-4.263-4.262m-27.707,5.594,7.459,5.6-7.459,5.593Zm29.839,12.52a2.134,2.134,0,0,1-2.132,2.131H809.975a2.132,2.132,0,0,1-2.132-2.131l8.347-6.26,4.655,3.493a3.2,3.2,0,0,0,3.837,0l4.653-3.493Zm0-1.332-7.459-5.593,7.459-5.6Zm-13.64-2.289a2.132,2.132,0,0,1-2.557,0l-4.407-3.3-.888-.666-8.347-6.261h0a2.135,2.135,0,0,1,2.132-2.132H835.55a2.136,2.136,0,0,1,2.132,2.132Z" transform="translate(-805.712 -496.427)" fill="#989898"/>
</svg>
