<svg xmlns="http://www.w3.org/2000/svg" width="23.894" height="31.858" viewBox="0 0 23.894 31.858">
  <g id="Group_29" data-name="Group 29" transform="translate(-810.816 -602.88)">
    <g id="Group_28" data-name="Group 28">
      <path id="Path_54" data-name="Path 54" d="M831.723,615.822V611.84a8.961,8.961,0,0,0-17.921,0v3.982a2.986,2.986,0,0,0-2.986,2.987v6.969a8.959,8.959,0,0,0,8.96,8.96h5.973a8.96,8.96,0,0,0,8.961-8.96v-6.969a2.987,2.987,0,0,0-2.987-2.987m-15.93-3.982a6.969,6.969,0,1,1,13.939,0v3.982H827.74v-3.979a4.978,4.978,0,1,0-9.956,0v3.979h-1.991Zm10.952,0v3.982H818.78V611.84a3.982,3.982,0,0,1,7.965,0m5.973,9.956v3.982a6.977,6.977,0,0,1-6.969,6.969h-5.973a6.978,6.978,0,0,1-6.97-6.969v-6.969a1,1,0,0,1,1-1h17.921a1,1,0,0,1,.995,1Z" fill="#989898"/>
      <path id="Path_55" data-name="Path 55" d="M822.762,620.965a1.993,1.993,0,0,0-1.991,1.992,10.016,10.016,0,0,0,.664,2.66c.272.739.612,1.321,1.327,1.321.778,0,1.056-.577,1.329-1.311a9.913,9.913,0,0,0,.663-2.67,1.993,1.993,0,0,0-1.992-1.992" fill="#989898"/>
    </g>
  </g>
</svg>
